<?xml version="1.0" encoding="UTF-8" standalone="no"?>
<!DOCTYPE svg PUBLIC "-//W3C//DTD SVG 1.1//EN" "http://www.w3.org/Graphics/SVG/1.1/DTD/svg11.dtd">
<svg xmlns="http://www.w3.org/2000/svg" version="1.1" viewBox="0.00 0.00 300.00 299.00">
<g stroke-width="2.00" fill="none" stroke-linecap="butt">
<path stroke="#8e3e1e" vector-effect="non-scaling-stroke" d="
  M 92.95 161.08
  L 111.92 166.97"
/>
<path stroke="#8e461e" vector-effect="non-scaling-stroke" d="
  M 111.92 166.97
  Q 122.58 169.85 133.19 172.35
  C 143.17 174.71 153.90 178.05 161.74 180.76
  Q 176.92 186.00 191.00 196.37"
/>
<path stroke="#8f4f1c" vector-effect="non-scaling-stroke" d="
  M 191.00 196.37
  Q 203.24 205.80 210.30 220.17"
/>
<path stroke="#8f571a" vector-effect="non-scaling-stroke" d="
  M 210.30 220.17
  Q 218.59 240.33 213.81 262.44
  Q 213.19 265.30 212.14 267.75
  Q 211.61 269.00 212.84 268.42
  C 224.11 263.18 234.48 257.05 243.42 248.26
  C 263.69 228.31 270.61 198.00 266.13 170.27"
/>
<path stroke="#8f4f1c" vector-effect="non-scaling-stroke" d="
  M 266.13 170.27
  C 262.16 148.14 249.63 129.82 231.81 116.41"
/>
<path stroke="#8e461e" vector-effect="non-scaling-stroke" d="
  M 231.81 116.41
  Q 221.40 108.38 209.98 101.53"
/>
<path stroke="#893720" vector-effect="non-scaling-stroke" d="
  M 209.98 101.53
  Q 200.93 96.05 191.79 90.70
  Q 179.69 83.62 163.72 71.74
  C 149.85 61.40 138.63 48.29 133.08 31.47
  A 0.58 0.58 0.0 0 0 132.02 31.38
  Q 129.60 35.83 127.49 40.38
  C 122.11 52.05 120.85 64.92 123.40 77.61
  Q 124.55 83.27 127.22 88.06
  Q 128.01 89.46 126.76 88.45
  Q 101.10 67.62 89.65 37.25
  Q 87.24 30.84 85.13 23.73
  A 0.66 0.66 0.0 0 0 83.93 23.57
  C 80.61 28.99 76.72 33.98 73.74 39.62
  C 59.10 67.40 52.79 98.33 52.87 130.35
  Q 52.88 133.17 54.16 134.71
  C 64.42 146.92 78.09 155.05 92.95 161.08"
/>
<path stroke="#f75f20" vector-effect="non-scaling-stroke" d="
  M 209.98 101.53
  Q 204.87 100.27 200.36 97.59
  Q 200.20 97.49 200.10 97.65
  L 200.10 97.66
  Q 200.00 97.83 200.17 97.93
  Q 207.76 102.46 215.27 107.11
  Q 215.48 107.24 215.36 107.47
  L 215.23 107.68
  Q 215.21 107.71 215.18 107.70
  L 187.76 91.23"
/>
<path stroke="#f75620" vector-effect="non-scaling-stroke" d="
  M 187.76 91.23
  Q 184.75 88.48 182.54 87.26
  Q 169.72 80.21 157.89 70.88
  Q 157.46 70.54 156.93 70.70
  Q 146.48 73.92 140.16 78.46
  Q 132.24 84.16 124.13 94.69
  C 109.42 113.78 95.76 133.50 80.79 152.63
  Q 80.48 153.03 80.93 153.26
  Q 87.30 156.56 92.95 161.08"
/>
<path stroke="#fc661e" vector-effect="non-scaling-stroke" d="
  M 187.76 91.23
  C 169.41 108.55 154.90 125.54 139.07 143.34
  Q 129.17 154.47 111.92 166.97"
/>
<path stroke="#fd771c" vector-effect="non-scaling-stroke" d="
  M 231.81 116.41
  L 223.21 112.18
  A 1.25 1.23 55.0 0 0 222.56 112.06
  Q 221.98 112.10 221.49 111.80
  Q 219.89 110.86 218.40 109.79
  Q 218.24 109.68 218.13 109.83
  L 218.13 109.84
  Q 218.07 109.93 218.16 109.99
  Q 223.65 114.09 228.74 118.56
  Q 229.15 118.93 228.93 119.43
  C 222.07 135.06 212.61 149.90 205.18 163.66
  Q 197.97 177.01 191.00 196.37"
/>
<path stroke="#fe8818" vector-effect="non-scaling-stroke" d="
  M 266.13 170.27
  Q 263.15 165.26 259.89 160.75
  C 252.14 150.06 245.34 155.26 239.16 163.50
  Q 228.11 178.22 220.67 192.97
  Q 216.40 201.42 210.30 220.17"
/>
<path stroke="#872b22" vector-effect="non-scaling-stroke" d="
  M 102.03 260.84
  L 106.96 263.53"
/>
<path stroke="#893720" vector-effect="non-scaling-stroke" d="
  M 106.96 263.53
  Q 122.95 271.80 140.53 275.12"
/>
<path stroke="#872b22" vector-effect="non-scaling-stroke" d="
  M 140.53 275.12
  C 162.87 279.47 184.97 278.74 206.52 271.27
  C 208.34 270.64 210.62 269.81 211.09 267.75
  C 215.48 248.55 214.23 229.00 201.73 213.76
  C 191.28 201.01 174.61 192.43 159.36 187.90
  Q 141.56 182.61 123.23 179.38"
/>
<path stroke="#842322" vector-effect="non-scaling-stroke" d="
  M 123.23 179.38
  Q 113.97 177.91 104.73 176.32
  Q 88.87 173.60 86.30 172.97
  Q 71.94 169.47 59.84 161.61
  Q 56.10 159.19 52.31 156.58
  Q 51.75 156.20 51.72 156.88
  Q 51.27 166.03 51.60 170.50
  Q 52.82 186.96 56.90 202.13
  C 63.62 227.05 79.41 248.03 102.03 260.84"
/>
<path stroke="#eb3026" vector-effect="non-scaling-stroke" d="
  M 123.23 179.38
  C 120.12 186.98 117.80 194.55 115.29 202.55
  C 112.32 212.02 106.05 221.29 100.06 229.28
  Q 93.28 238.32 82.93 242.84
  Q 82.45 243.05 82.80 243.44
  C 86.28 247.25 89.37 250.53 93.62 253.82
  Q 97.93 257.16 102.03 260.84"
/>
<path stroke="#f04424" vector-effect="non-scaling-stroke" d="
  M 140.53 275.12
  Q 141.34 275.27 141.86 275.07
  Q 142.56 274.81 141.85 274.58
  L 106.96 263.53"
/>
</g>
<path fill="#201e1e" d="
  M 300.00 0.00
  L 300.00 299.00
  L 0.00 299.00
  L 0.00 0.00
  L 300.00 0.00
  Z
  M 92.95 161.08
  L 111.92 166.97
  Q 122.58 169.85 133.19 172.35
  C 143.17 174.71 153.90 178.05 161.74 180.76
  Q 176.92 186.00 191.00 196.37
  Q 203.24 205.80 210.30 220.17
  Q 218.59 240.33 213.81 262.44
  Q 213.19 265.30 212.14 267.75
  Q 211.61 269.00 212.84 268.42
  C 224.11 263.18 234.48 257.05 243.42 248.26
  C 263.69 228.31 270.61 198.00 266.13 170.27
  C 262.16 148.14 249.63 129.82 231.81 116.41
  Q 221.40 108.38 209.98 101.53
  Q 200.93 96.05 191.79 90.70
  Q 179.69 83.62 163.72 71.74
  C 149.85 61.40 138.63 48.29 133.08 31.47
  A 0.58 0.58 0.0 0 0 132.02 31.38
  Q 129.60 35.83 127.49 40.38
  C 122.11 52.05 120.85 64.92 123.40 77.61
  Q 124.55 83.27 127.22 88.06
  Q 128.01 89.46 126.76 88.45
  Q 101.10 67.62 89.65 37.25
  Q 87.24 30.84 85.13 23.73
  A 0.66 0.66 0.0 0 0 83.93 23.57
  C 80.61 28.99 76.72 33.98 73.74 39.62
  C 59.10 67.40 52.79 98.33 52.87 130.35
  Q 52.88 133.17 54.16 134.71
  C 64.42 146.92 78.09 155.05 92.95 161.08
  Z
  M 102.03 260.84
  L 106.96 263.53
  Q 122.95 271.80 140.53 275.12
  C 162.87 279.47 184.97 278.74 206.52 271.27
  C 208.34 270.64 210.62 269.81 211.09 267.75
  C 215.48 248.55 214.23 229.00 201.73 213.76
  C 191.28 201.01 174.61 192.43 159.36 187.90
  Q 141.56 182.61 123.23 179.38
  Q 113.97 177.91 104.73 176.32
  Q 88.87 173.60 86.30 172.97
  Q 71.94 169.47 59.84 161.61
  Q 56.10 159.19 52.31 156.58
  Q 51.75 156.20 51.72 156.88
  Q 51.27 166.03 51.60 170.50
  Q 52.82 186.96 56.90 202.13
  C 63.62 227.05 79.41 248.03 102.03 260.84
  Z"
/>
<path fill="#f14f22" d="
  M 209.98 101.53
  Q 204.87 100.27 200.36 97.59
  Q 200.20 97.49 200.10 97.65
  L 200.10 97.66
  Q 200.00 97.83 200.17 97.93
  Q 207.76 102.46 215.27 107.11
  Q 215.48 107.24 215.36 107.47
  L 215.23 107.68
  Q 215.21 107.71 215.18 107.70
  L 187.76 91.23
  Q 184.75 88.48 182.54 87.26
  Q 169.72 80.21 157.89 70.88
  Q 157.46 70.54 156.93 70.70
  Q 146.48 73.92 140.16 78.46
  Q 132.24 84.16 124.13 94.69
  C 109.42 113.78 95.76 133.50 80.79 152.63
  Q 80.48 153.03 80.93 153.26
  Q 87.30 156.56 92.95 161.08
  C 78.09 155.05 64.42 146.92 54.16 134.71
  Q 52.88 133.17 52.87 130.35
  C 52.79 98.33 59.10 67.40 73.74 39.62
  C 76.72 33.98 80.61 28.99 83.93 23.57
  A 0.66 0.66 0.0 0 1 85.13 23.73
  Q 87.24 30.84 89.65 37.25
  Q 101.10 67.62 126.76 88.45
  Q 128.01 89.46 127.22 88.06
  Q 124.55 83.27 123.40 77.61
  C 120.85 64.92 122.11 52.05 127.49 40.38
  Q 129.60 35.83 132.02 31.38
  A 0.58 0.58 0.0 0 1 133.08 31.47
  C 138.63 48.29 149.85 61.40 163.72 71.74
  Q 179.69 83.62 191.79 90.70
  Q 200.93 96.05 209.98 101.53
  Z"
/>
<path fill="#fc5d1e" d="
  M 187.76 91.23
  C 169.41 108.55 154.90 125.54 139.07 143.34
  Q 129.17 154.47 111.92 166.97
  L 92.95 161.08
  Q 87.30 156.56 80.93 153.26
  Q 80.48 153.03 80.79 152.63
  C 95.76 133.50 109.42 113.78 124.13 94.69
  Q 132.24 84.16 140.16 78.46
  Q 146.48 73.92 156.93 70.70
  Q 157.46 70.54 157.89 70.88
  Q 169.72 80.21 182.54 87.26
  Q 184.75 88.48 187.76 91.23
  Z"
/>
<path fill="#fc6e1d" d="
  M 187.76 91.23
  L 215.18 107.70
  Q 215.21 107.71 215.23 107.68
  L 215.36 107.47
  Q 215.48 107.24 215.27 107.11
  Q 207.76 102.46 200.17 97.93
  Q 200.00 97.83 200.10 97.66
  L 200.10 97.65
  Q 200.20 97.49 200.36 97.59
  Q 204.87 100.27 209.98 101.53
  Q 221.40 108.38 231.81 116.41
  L 223.21 112.18
  A 1.25 1.23 55.0 0 0 222.56 112.06
  Q 221.98 112.10 221.49 111.80
  Q 219.89 110.86 218.40 109.79
  Q 218.24 109.68 218.13 109.83
  L 218.13 109.84
  Q 218.07 109.93 218.16 109.99
  Q 223.65 114.09 228.74 118.56
  Q 229.15 118.93 228.93 119.43
  C 222.07 135.06 212.61 149.90 205.18 163.66
  Q 197.97 177.01 191.00 196.37
  Q 176.92 186.00 161.74 180.76
  C 153.90 178.05 143.17 174.71 133.19 172.35
  Q 122.58 169.85 111.92 166.97
  Q 129.17 154.47 139.07 143.34
  C 154.90 125.54 169.41 108.55 187.76 91.23
  Z"
/>
<path fill="#fe801a" d="
  M 231.81 116.41
  C 249.63 129.82 262.16 148.14 266.13 170.27
  Q 263.15 165.26 259.89 160.75
  C 252.14 150.06 245.34 155.26 239.16 163.50
  Q 228.11 178.22 220.67 192.97
  Q 216.40 201.42 210.30 220.17
  Q 203.24 205.80 191.00 196.37
  Q 197.97 177.01 205.18 163.66
  C 212.61 149.90 222.07 135.06 228.93 119.43
  Q 229.15 118.93 228.74 118.56
  Q 223.65 114.09 218.16 109.99
  Q 218.07 109.93 218.13 109.84
  L 218.13 109.83
  Q 218.24 109.68 218.40 109.79
  Q 219.89 110.86 221.49 111.80
  Q 221.98 112.10 222.56 112.06
  A 1.25 1.23 55.0 0 1 223.21 112.18
  L 231.81 116.41
  Z"
/>
<path fill="#fd9015" d="
  M 266.13 170.27
  C 270.61 198.00 263.69 228.31 243.42 248.26
  C 234.48 257.05 224.11 263.18 212.84 268.42
  Q 211.61 269.00 212.14 267.75
  Q 213.19 265.30 213.81 262.44
  Q 218.59 240.33 210.30 220.17
  Q 216.40 201.42 220.67 192.97
  Q 228.11 178.22 239.16 163.50
  C 245.34 155.26 252.14 150.06 259.89 160.75
  Q 263.15 165.26 266.13 170.27
  Z"
/>
<path fill="#e82826" d="
  M 123.23 179.38
  C 120.12 186.98 117.80 194.55 115.29 202.55
  C 112.32 212.02 106.05 221.29 100.06 229.28
  Q 93.28 238.32 82.93 242.84
  Q 82.45 243.05 82.80 243.44
  C 86.28 247.25 89.37 250.53 93.62 253.82
  Q 97.93 257.16 102.03 260.84
  C 79.41 248.03 63.62 227.05 56.90 202.13
  Q 52.82 186.96 51.60 170.50
  Q 51.27 166.03 51.72 156.88
  Q 51.75 156.20 52.31 156.58
  Q 56.10 159.19 59.84 161.61
  Q 71.94 169.47 86.30 172.97
  Q 88.87 173.60 104.73 176.32
  Q 113.97 177.91 123.23 179.38
  Z"
/>
<path fill="#ee3825" d="
  M 123.23 179.38
  Q 141.56 182.61 159.36 187.90
  C 174.61 192.43 191.28 201.01 201.73 213.76
  C 214.23 229.00 215.48 248.55 211.09 267.75
  C 210.62 269.81 208.34 270.64 206.52 271.27
  C 184.97 278.74 162.87 279.47 140.53 275.12
  Q 141.34 275.27 141.86 275.07
  Q 142.56 274.81 141.85 274.58
  L 106.96 263.53
  L 102.03 260.84
  Q 97.93 257.16 93.62 253.82
  C 89.37 250.53 86.28 247.25 82.80 243.44
  Q 82.45 243.05 82.93 242.84
  Q 93.28 238.32 100.06 229.28
  C 106.05 221.29 112.32 212.02 115.29 202.55
  C 117.80 194.55 120.12 186.98 123.23 179.38
  Z"
/>
<path fill="#f14f22" d="
  M 140.53 275.12
  Q 122.95 271.80 106.96 263.53
  L 141.85 274.58
  Q 142.56 274.81 141.86 275.07
  Q 141.34 275.27 140.53 275.12
  Z"
/>
</svg>
